<svg width="40" height="40" viewBox="0 0 40 40" fill="none" xmlns="http://www.w3.org/2000/svg">
<path d="M13.8166 18.8167C13.6649 18.9752 13.5459 19.1621 13.4666 19.3667C13.2999 19.7724 13.2999 20.2276 13.4666 20.6333C13.5459 20.8379 13.6649 21.0248 13.8166 21.1833L18.8166 26.1833C19.1305 26.4972 19.5561 26.6735 20 26.6735C20.4438 26.6735 20.8694 26.4972 21.1833 26.1833C21.4971 25.8695 21.6734 25.4439 21.6734 25C21.6734 24.5562 21.4971 24.1305 21.1833 23.8167L19.0166 21.6667L25 21.6667C25.442 21.6667 25.8659 21.4911 26.1785 21.1785C26.491 20.866 26.6666 20.442 26.6666 20C26.6666 19.558 26.491 19.1341 26.1785 18.8215C25.8659 18.5089 25.442 18.3333 25 18.3333L19.0166 18.3333L21.1833 16.1833C21.3395 16.0284 21.4635 15.8441 21.5481 15.641C21.6327 15.4379 21.6763 15.22 21.6763 15C21.6763 14.78 21.6327 14.5622 21.5481 14.3591C21.4635 14.156 21.3395 13.9716 21.1833 13.8167C21.0283 13.6605 20.844 13.5365 20.6409 13.4519C20.4378 13.3672 20.22 13.3237 20 13.3237C19.7799 13.3237 19.5621 13.3672 19.359 13.4519C19.1559 13.5365 18.9716 13.6605 18.8166 13.8167L13.8166 18.8167ZM3.33328 20C3.33329 23.2964 4.31077 26.5187 6.14213 29.2595C7.97348 32.0003 10.5765 34.1365 13.6219 35.398C16.6673 36.6595 20.0184 36.9895 23.2515 36.3464C26.4845 35.7033 29.4542 34.116 31.7851 31.7851C34.1159 29.4543 35.7033 26.4845 36.3464 23.2515C36.9895 20.0185 36.6594 16.6674 35.3979 13.622C34.1365 10.5765 32.0003 7.97355 29.2595 6.14219C26.5186 4.31083 23.2963 3.33335 19.9999 3.33335C15.5797 3.33335 11.3404 5.0893 8.21484 8.2149C5.08923 11.3405 3.33328 15.5797 3.33328 20ZM33.3333 20C33.3333 22.6371 32.5513 25.215 31.0862 27.4076C29.6211 29.6003 27.5387 31.3092 25.1024 32.3184C22.666 33.3276 19.9852 33.5916 17.3987 33.0772C14.8123 32.5627 12.4366 31.2928 10.5719 29.4281C8.70716 27.5634 7.43728 25.1876 6.92281 22.6012C6.40834 20.0148 6.67239 17.3339 7.68156 14.8976C8.69073 12.4612 10.3997 10.3788 12.5923 8.91376C14.785 7.44867 17.3629 6.66668 19.9999 6.66668C23.5362 6.66668 26.9276 8.07144 29.428 10.5719C31.9285 13.0724 33.3333 16.4638 33.3333 20Z" fill="#0061FF"/>
</svg>
