<svg width="16" height="16" viewBox="0 0 16 16" fill="none" xmlns="http://www.w3.org/2000/svg">
<path d="M3.33301 12H6.15967C6.24741 12.0005 6.33439 11.9837 6.41561 11.9505C6.49684 11.9173 6.57071 11.8685 6.63301 11.8067L11.2463 7.18667L13.1397 5.33333C13.2022 5.27136 13.2518 5.19762 13.2856 5.11638C13.3194 5.03515 13.3369 4.94801 13.3369 4.86C13.3369 4.77199 13.3194 4.68485 13.2856 4.60362C13.2518 4.52238 13.2022 4.44864 13.1397 4.38667L10.313 1.52667C10.251 1.46418 10.1773 1.41458 10.0961 1.38074C10.0148 1.34689 9.92768 1.32947 9.83967 1.32947C9.75167 1.32947 9.66453 1.34689 9.58329 1.38074C9.50205 1.41458 9.42832 1.46418 9.36634 1.52667L7.48634 3.41333L2.85967 8.03333C2.79789 8.09563 2.749 8.1695 2.71583 8.25073C2.68265 8.33195 2.66583 8.41893 2.66634 8.50667V11.3333C2.66634 11.5101 2.73658 11.6797 2.8616 11.8047C2.98663 11.9298 3.1562 12 3.33301 12ZM9.83967 2.94L11.7263 4.82667L10.7797 5.77333L8.89301 3.88667L9.83967 2.94ZM3.99967 8.78L7.95301 4.82667L9.83967 6.71333L5.88634 10.6667H3.99967V8.78ZM13.9997 13.3333H1.99967C1.82286 13.3333 1.65329 13.4036 1.52827 13.5286C1.40325 13.6536 1.33301 13.8232 1.33301 14C1.33301 14.1768 1.40325 14.3464 1.52827 14.4714C1.65329 14.5964 1.82286 14.6667 1.99967 14.6667H13.9997C14.1765 14.6667 14.3461 14.5964 14.4711 14.4714C14.5961 14.3464 14.6663 14.1768 14.6663 14C14.6663 13.8232 14.5961 13.6536 14.4711 13.5286C14.3461 13.4036 14.1765 13.3333 13.9997 13.3333Z" fill="white"/>
</svg>
